{"accessors":[{"bufferView":0,"componentType":5126,"count":24,"min":[-1.0,-1.0,-1.0],"max":[1.0,1.0,1.0],"type":"VEC3","name":"Cube_vertices#0_POSITION"},{"bufferView":0,"byteOffset":12,"componentType":5120,"count":24,"type":"VEC4","name":"Cube_vertices#0_TANGENT"},{"bufferView":0,"byteOffset":16,"componentType":5120,"count":24,"type":"VEC4","name":"Cube_vertices#0_NORMAL"},{"bufferView":0,"byteOffset":20,"componentType":5122,"count":24,"type":"VEC2","name":"Cube_vertices#0_TEXCOORD_0"},{"bufferView":0,"byteOffset":24,"componentType":5122,"count":24,"type":"VEC2","name":"Cube_vertices#0_TEXCOORD_1"},{"bufferView":0,"byteOffset":28,"componentType":5123,"count":24,"type":"VEC4","name":"Cube_vertices#0_COLOR_0"},{"bufferView":1,"componentType":5123,"count":36,"type":"SCALAR","name":"Cube_indices#0"}],"asset":{"generator":"Khronos glTF Blender I/O v4.5.49 and Asobo Studio MSFS2020 Blender I/O v3.3.1 with Blender v4.5.4","version":"2.0","extensions":{"ASOBO_asset_optimized":{"BoundingBoxMax":[1.0,1.0,1.0],"BoundingBoxMin":[-1.0,-1.0,-1.0],"MajorVersion":4,"MinorVersion":4,"UseCheckerboardMaterialForMissingTextures":true,"UseOnlyFilenameForImageURI":true},"ASOBO_normal_map_convention":{"tangent_space_convention":"DirectX"}}},"bufferViews":[{"buffer":0,"byteLength":864,"byteStride":36,"target":34962,"name":"BufferViewVertexND"},{"buffer":0,"byteLength":72,"byteOffset":864,"target":34963,"name":"BufferViewIndex"}],"materials":[{"name":"Material","extensions":{"ASOBO_material_invisible":{}}}],"meshes":[{"primitives":[{"attributes":{"COLOR_0":5,"NORMAL":2,"POSITION":0,"TANGENT":1,"TEXCOORD_0":3,"TEXCOORD_1":4},"indices":6,"material":0,"mode":4,"extras":{"ASOBO_primitive":{"PrimitiveCount":12,"VertexType":"VTX","VertexVersion":2}}}],"name":"Cube"}],"nodes":[{"mesh":0,"extensions":{"ASOBO_unique_id":{"id":"Cube"}},"name":"Cube"}],"scene":0,"scenes":[{"nodes":[0],"name":"Scene"}],"extensionsUsed":["ASOBO_normal_map_convention","ASOBO_unique_id","ASOBO_material_invisible","ASOBO_material_shadow_options","ASOBO_asset_optimized"],"buffers":[{"byteLength":936,"uri":"Cube.bin"}]}
