{
	"asset":{
		"extensions":{
			"ASOBO_normal_map_convention":{
				"tangent_space_convention":"DirectX"
			}
		},
		"generator":"Khronos glTF Blender I/O v4.5.49 and Asobo Studio MSFS2020 Blender I/O v3.3.1 with Blender v4.5.4",
		"version":"2.0"
	},
	"extensionsUsed":[
		"ASOBO_normal_map_convention",
		"ASOBO_unique_id",
		"ASOBO_material_ghost_effect",
		"ASOBO_material_shadow_options",
		"ASOBO_macro_light"
	],
	"scene":0,
	"scenes":[
		{
			"name":"Scene",
			"nodes":[
				0,
				1,
				2,
				3
			]
		}
	],
	"nodes":[
		{
			"extensions":{
				"ASOBO_unique_id":{
					"id":"Cylinder.001"
				}
			},
			"mesh":0,
			"name":"Cylinder.001",
			"scale":[
				5,
				1000,
				5
			],
			"translation":[
				0,
				1000,
				0
			]
		},
		{
			"extensions":{
				"ASOBO_unique_id":{
					"id":"Spot.001"
				},
				"ASOBO_macro_light":{
					"color":[
						0,
						1,
						1
					],
					"intensity":9000000,
					"cone_angle":180.00000500895632,
					"has_symmetry":true,
					"flash_frequency":80,
					"flash_duration":0.4000000059604645,
					"flash_phase":0,
					"rotation_speed":0,
					"day_night_cycle":true
				}
			},
			"name":"Spot.001",
			"rotation":[
				-0.7071067690849304,
				0,
				0,
				-0.70710688829422
			],
			"translation":[
				0,
				409,
				0
			]
		},
		{
			"extensions":{
				"ASOBO_unique_id":{
					"id":"Spot.002"
				},
				"ASOBO_macro_light":{
					"color":[
						1,
						0,
						1
					],
					"intensity":9000000,
					"cone_angle":180.00000500895632,
					"has_symmetry":true,
					"flash_frequency":80,
					"flash_duration":0.4000000059604645,
					"flash_phase":0.33000001311302185,
					"rotation_speed":0,
					"day_night_cycle":true
				}
			},
			"name":"Spot.002",
			"rotation":[
				-0.3535533547401428,
				-0.6123723983764648,
				0.6123724579811096,
				-0.3535534143447876
			],
			"translation":[
				0,
				409,
				0
			]
		},
		{
			"extensions":{
				"ASOBO_unique_id":{
					"id":"Spot.003"
				},
				"ASOBO_macro_light":{
					"color":[
						0.6038230657577515,
						1,
						0
					],
					"intensity":9000000,
					"cone_angle":0.9999999922536332,
					"has_symmetry":true,
					"flash_frequency":80,
					"flash_duration":0.4000000059604645,
					"flash_phase":0.6600000262260437,
					"rotation_speed":0,
					"day_night_cycle":true
				}
			},
			"name":"Spot.003",
			"rotation":[
				-0.3535533845424652,
				0.6123724579811096,
				-0.6123723983764648,
				-0.3535534739494324
			],
			"translation":[
				0,
				409,
				0
			]
		}
	],
	"materials":[
		{
			"doubleSided":true,
			"emissiveFactor":[
				0,
				0,
				0
			],
			"extensions":{
				"ASOBO_material_ghost_effect":{
					"bias":1,
					"scale":1,
					"power":1
				},
				"ASOBO_material_shadow_options":{
					"noCastShadow":true
				}
			},
			"extras":{},
			"name":"Material.002",
			"pbrMetallicRoughness":{
				"baseColorFactor":[
					1,
					0,
					0.0028681715484708548,
					1
				],
				"metallicFactor":1,
				"roughnessFactor":1
			}
		}
	],
	"meshes":[
		{
			"name":"Cylinder.001",
			"primitives":[
				{
					"attributes":{
						"POSITION":0,
						"NORMAL":1,
						"TEXCOORD_0":2
					},
					"indices":3,
					"material":0
				}
			]
		}
	],
	"accessors":[
		{
			"bufferView":0,
			"componentType":5126,
			"count":192,
			"max":[
				1,
				1,
				1
			],
			"min":[
				-1,
				-1,
				-1
			],
			"type":"VEC3"
		},
		{
			"bufferView":1,
			"componentType":5126,
			"count":192,
			"type":"VEC3"
		},
		{
			"bufferView":2,
			"componentType":5126,
			"count":192,
			"type":"VEC2"
		},
		{
			"bufferView":3,
			"componentType":5123,
			"count":372,
			"type":"SCALAR"
		}
	],
	"bufferViews":[
		{
			"buffer":0,
			"byteLength":2304,
			"byteOffset":0,
			"target":34962
		},
		{
			"buffer":0,
			"byteLength":2304,
			"byteOffset":2304,
			"target":34962
		},
		{
			"buffer":0,
			"byteLength":1536,
			"byteOffset":4608,
			"target":34962
		},
		{
			"buffer":0,
			"byteLength":744,
			"byteOffset":6144,
			"target":34963
		}
	],
	"buffers":[
		{
			"byteLength":6888,
			"uri":"Lasers.bin"
		}
	]
}
