{"accessors":[{"bufferView":0,"componentType":5126,"count":192,"min":[-0.014851484447717667,-2.970296859741211,-0.014851484447717667],"max":[0.014851484447717667,2.970296859741211,0.014851484447717667],"type":"VEC3","name":"Cylinder.001_vertices#0_POSITION"},{"bufferView":0,"byteOffset":12,"componentType":5120,"count":192,"type":"VEC4","name":"Cylinder.001_vertices#0_TANGENT"},{"bufferView":0,"byteOffset":16,"componentType":5120,"count":192,"type":"VEC4","name":"Cylinder.001_vertices#0_NORMAL"},{"bufferView":0,"byteOffset":20,"componentType":5122,"count":192,"type":"VEC2","name":"Cylinder.001_vertices#0_TEXCOORD_0"},{"bufferView":0,"byteOffset":24,"componentType":5122,"count":192,"type":"VEC2","name":"Cylinder.001_vertices#0_TEXCOORD_1"},{"bufferView":0,"byteOffset":28,"componentType":5123,"count":192,"type":"VEC4","name":"Cylinder.001_vertices#0_COLOR_0"},{"bufferView":1,"componentType":5123,"count":372,"type":"SCALAR","name":"Cylinder.001_indices#0"}],"asset":{"generator":"Khronos glTF Blender I/O v4.5.49 and Asobo Studio MSFS2020 Blender I/O v3.3.1 with Blender v4.5.4","version":"2.0","extensions":{"ASOBO_asset_optimized":{"BoundingBoxMax":[0.00022056659508962184,8.822663307189942,0.00022056659508962184],"BoundingBoxMin":[-0.00022056659508962184,-8.822663307189942,-0.00022056659508962184],"MajorVersion":4,"MinorVersion":4,"UseCheckerboardMaterialForMissingTextures":true,"UseOnlyFilenameForImageURI":true},"ASOBO_normal_map_convention":{"tangent_space_convention":"DirectX"}}},"bufferViews":[{"buffer":0,"byteLength":6912,"byteStride":36,"target":34962,"name":"BufferViewVertexND"},{"buffer":0,"byteLength":744,"byteOffset":6912,"target":34963,"name":"BufferViewIndex"}],"materials":[{"name":"Material.002","doubleSided":true,"pbrMetallicRoughness":{"baseColorFactor":[1.0,0.0,0.0028681715484708549,1.0]},"extensions":{"ASOBO_material_ghost_effect":{"bias":1.0},"ASOBO_material_shadow_options":{"noCastShadow":true}}}],"meshes":[{"primitives":[{"attributes":{"COLOR_0":5,"NORMAL":2,"POSITION":0,"TANGENT":1,"TEXCOORD_0":3,"TEXCOORD_1":4},"indices":6,"material":0,"mode":4,"extras":{"ASOBO_primitive":{"PrimitiveCount":124,"VertexType":"VTX","VertexVersion":2}}}],"name":"Cylinder.001"}],"nodes":[{"translation":[0.0,1000.0,0.0],"scale":[5.0,1000.0,5.0],"mesh":0,"extensions":{"ASOBO_unique_id":{"id":"Cylinder.001"}},"name":"Cylinder.001"},{"translation":[0.0,409.0,0.0],"rotation":[-0.7071067690849304,0.0,0.0,-0.70710688829422],"extensions":{"ASOBO_macro_light":{"color":[0,1,1],"cone_angle":180.00000500895633,"day_night_cycle":true,"flash_duration":0.4000000059604645,"flash_frequency":80,"flash_phase":0,"has_symmetry":true,"intensity":9000000,"rotation_speed":0},"ASOBO_unique_id":{"id":"Spot.001"}},"name":"Spot.001"},{"translation":[0.0,409.0,0.0],"rotation":[-0.3535533547401428,-0.6123723983764648,0.6123724579811096,-0.3535534143447876],"extensions":{"ASOBO_macro_light":{"color":[1,0,1],"cone_angle":180.00000500895633,"day_night_cycle":true,"flash_duration":0.4000000059604645,"flash_frequency":80,"flash_phase":0.33000001311302187,"has_symmetry":true,"intensity":9000000,"rotation_speed":0},"ASOBO_unique_id":{"id":"Spot.002"}},"name":"Spot.002"},{"translation":[0.0,409.0,0.0],"rotation":[-0.3535533845424652,0.6123724579811096,-0.6123723983764648,-0.3535534739494324],"extensions":{"ASOBO_macro_light":{"color":[0.6038230657577515,1,0],"cone_angle":0.9999999922536332,"day_night_cycle":true,"flash_duration":0.4000000059604645,"flash_frequency":80,"flash_phase":0.6600000262260437,"has_symmetry":true,"intensity":9000000,"rotation_speed":0},"ASOBO_unique_id":{"id":"Spot.003"}},"name":"Spot.003"}],"scene":0,"scenes":[{"nodes":[0,1,2,3],"name":"Scene"}],"extensionsUsed":["ASOBO_normal_map_convention","ASOBO_unique_id","ASOBO_material_ghost_effect","ASOBO_material_shadow_options","ASOBO_macro_light","ASOBO_asset_optimized"],"buffers":[{"byteLength":7656,"uri":"Lasers.bin"}]}
